<svg width="800" height="600" version="1.1" xmlns="http://www.w3.org/2000/svg">
	<ellipse stroke="black" stroke-width="1" fill="none" cx="77.5" cy="102.5" rx="30" ry="30"/>
	<text x="67.5" y="108.5" font-family="Times New Roman" font-size="20">q0</text>
	<ellipse stroke="black" stroke-width="1" fill="none" cx="77.5" cy="102.5" rx="24" ry="24"/>
	<ellipse stroke="black" stroke-width="1" fill="none" cx="244.5" cy="102.5" rx="30" ry="30"/>
	<text x="234.5" y="108.5" font-family="Times New Roman" font-size="20">q1</text>
	<ellipse stroke="black" stroke-width="1" fill="none" cx="244.5" cy="102.5" rx="24" ry="24"/>
	<ellipse stroke="black" stroke-width="1" fill="none" cx="406.5" cy="102.5" rx="30" ry="30"/>
	<text x="396.5" y="108.5" font-family="Times New Roman" font-size="20">q2</text>
	<ellipse stroke="black" stroke-width="1" fill="none" cx="406.5" cy="102.5" rx="24" ry="24"/>
	<polygon stroke="black" stroke-width="1" points="274.5,102.5 376.5,102.5"/>
	<polygon fill="black" stroke-width="1" points="376.5,102.5 368.5,97.5 368.5,107.5"/>
	<text x="320.5" y="93.5" font-family="Times New Roman" font-size="20">b</text>
	<path stroke="black" stroke-width="1" fill="none" d="M 64.275,75.703 A 22.5,22.5 0 1 1 90.725,75.703"/>
	<text x="66.5" y="26.5" font-family="Times New Roman" font-size="20">a,c</text>
	<polygon fill="black" stroke-width="1" points="90.725,75.703 99.473,72.17 91.382,66.292"/>
	<path stroke="black" stroke-width="1" fill="none" d="M 225.81,125.811 A 96.212,96.212 0 0 1 96.19,125.811"/>
	<polygon fill="black" stroke-width="1" points="96.19,125.811 98.734,134.896 105.47,127.505"/>
	<text x="149.5" y="171.5" font-family="Times New Roman" font-size="20">a,c</text>
	<polygon stroke="black" stroke-width="1" points="107.5,102.5 214.5,102.5"/>
	<polygon fill="black" stroke-width="1" points="214.5,102.5 206.5,97.5 206.5,107.5"/>
	<text x="156.5" y="93.5" font-family="Times New Roman" font-size="20">b</text>
	<polygon stroke="black" stroke-width="1" points="8.5,102.5 47.5,102.5"/>
	<polygon fill="black" stroke-width="1" points="47.5,102.5 39.5,97.5 39.5,107.5"/>
</svg>
